<mxfile host="app.diagrams.net" modified="2022-03-23T13:22:33.874Z" agent="5.0 (Windows NT 10.0; Win64; x64) AppleWebKit/537.36 (KHTML, like Gecko) Chrome/99.0.4844.82 Safari/537.36" etag="Gm0gh-NpKpxLxzmoHytu" version="17.1.5" type="github">
  <diagram id="weEfpULgrD5ZKLK6HZR-" name="Page-1">
    <mxGraphModel dx="2307" dy="3625" grid="1" gridSize="10" guides="1" tooltips="1" connect="1" arrows="1" fold="1" page="1" pageScale="1" pageWidth="827" pageHeight="1169" math="0" shadow="0">
      <root>
        <mxCell id="0" />
        <mxCell id="1" parent="0" />
        <mxCell id="A9x5BEMEBD9m5PnlI2ai-1" value="" style="rounded=1;whiteSpace=wrap;html=1;dashed=1;" vertex="1" parent="1">
          <mxGeometry x="60" y="-2180" width="670" height="460" as="geometry" />
        </mxCell>
        <mxCell id="A9x5BEMEBD9m5PnlI2ai-2" value="" style="rounded=1;whiteSpace=wrap;html=1;dashed=1;" vertex="1" parent="1">
          <mxGeometry x="60" y="-1670" width="670" height="460" as="geometry" />
        </mxCell>
        <mxCell id="A9x5BEMEBD9m5PnlI2ai-3" value="" style="rounded=1;whiteSpace=wrap;html=1;dashed=1;" vertex="1" parent="1">
          <mxGeometry x="60" y="-1169" width="670" height="460" as="geometry" />
        </mxCell>
        <mxCell id="A9x5BEMEBD9m5PnlI2ai-4" value="&lt;font style=&quot;font-size: 30px&quot;&gt;data&lt;/font&gt;" style="text;html=1;strokeColor=none;fillColor=none;align=center;verticalAlign=middle;whiteSpace=wrap;rounded=0;" vertex="1" parent="1">
          <mxGeometry x="120" y="-2160" width="60" height="30" as="geometry" />
        </mxCell>
        <mxCell id="A9x5BEMEBD9m5PnlI2ai-5" value="domain" style="text;html=1;strokeColor=none;fillColor=none;align=center;verticalAlign=middle;whiteSpace=wrap;rounded=0;fontSize=30;" vertex="1" parent="1">
          <mxGeometry x="110" y="-1640" width="60" height="30" as="geometry" />
        </mxCell>
        <mxCell id="A9x5BEMEBD9m5PnlI2ai-6" value="presentation" style="text;html=1;strokeColor=none;fillColor=none;align=center;verticalAlign=middle;whiteSpace=wrap;rounded=0;fontSize=30;" vertex="1" parent="1">
          <mxGeometry x="150" y="-1140" width="60" height="30" as="geometry" />
        </mxCell>
        <mxCell id="A9x5BEMEBD9m5PnlI2ai-58" style="edgeStyle=orthogonalEdgeStyle;rounded=0;orthogonalLoop=1;jettySize=auto;html=1;entryX=0;entryY=0.5;entryDx=0;entryDy=0;fontSize=15;" edge="1" parent="1" source="A9x5BEMEBD9m5PnlI2ai-7" target="A9x5BEMEBD9m5PnlI2ai-44">
          <mxGeometry relative="1" as="geometry" />
        </mxCell>
        <mxCell id="A9x5BEMEBD9m5PnlI2ai-7" value="&lt;span style=&quot;font-size: 15px&quot;&gt;choseTeaType&lt;br&gt;Fragment&lt;br&gt;&lt;/span&gt;" style="rounded=0;whiteSpace=wrap;html=1;fontSize=30;" vertex="1" parent="1">
          <mxGeometry x="100" y="-940" width="100" height="180" as="geometry" />
        </mxCell>
        <mxCell id="A9x5BEMEBD9m5PnlI2ai-26" style="edgeStyle=orthogonalEdgeStyle;rounded=0;orthogonalLoop=1;jettySize=auto;html=1;entryX=0.5;entryY=0;entryDx=0;entryDy=0;fontSize=15;" edge="1" parent="1" source="A9x5BEMEBD9m5PnlI2ai-16" target="A9x5BEMEBD9m5PnlI2ai-17">
          <mxGeometry relative="1" as="geometry" />
        </mxCell>
        <mxCell id="A9x5BEMEBD9m5PnlI2ai-65" style="edgeStyle=orthogonalEdgeStyle;rounded=0;orthogonalLoop=1;jettySize=auto;html=1;entryX=0.5;entryY=1;entryDx=0;entryDy=0;fontSize=15;" edge="1" parent="1" source="A9x5BEMEBD9m5PnlI2ai-16" target="A9x5BEMEBD9m5PnlI2ai-32">
          <mxGeometry relative="1" as="geometry" />
        </mxCell>
        <mxCell id="A9x5BEMEBD9m5PnlI2ai-16" value="totalOfNewTeaViewModel" style="rounded=1;whiteSpace=wrap;html=1;fontSize=15;" vertex="1" parent="1">
          <mxGeometry x="520" y="-1100" width="180" height="30" as="geometry" />
        </mxCell>
        <mxCell id="A9x5BEMEBD9m5PnlI2ai-40" style="edgeStyle=orthogonalEdgeStyle;rounded=0;orthogonalLoop=1;jettySize=auto;html=1;entryX=0.5;entryY=1;entryDx=0;entryDy=0;fontSize=15;" edge="1" parent="1" source="A9x5BEMEBD9m5PnlI2ai-17" target="A9x5BEMEBD9m5PnlI2ai-16">
          <mxGeometry relative="1" as="geometry" />
        </mxCell>
        <mxCell id="A9x5BEMEBD9m5PnlI2ai-17" value="&lt;span style=&quot;font-size: 15px&quot;&gt;totalOfNewTea&lt;br&gt;Fragment&lt;br&gt;&lt;/span&gt;" style="rounded=0;whiteSpace=wrap;html=1;fontSize=30;" vertex="1" parent="1">
          <mxGeometry x="570" y="-940" width="100" height="180" as="geometry" />
        </mxCell>
        <mxCell id="A9x5BEMEBD9m5PnlI2ai-30" value="newTeaRvAdapter" style="rounded=1;whiteSpace=wrap;html=1;fontSize=10;" vertex="1" parent="1">
          <mxGeometry x="460" y="-1150" width="125" height="30" as="geometry" />
        </mxCell>
        <mxCell id="A9x5BEMEBD9m5PnlI2ai-32" value="saveNewTeaUseCase" style="ellipse;whiteSpace=wrap;html=1;fontSize=15;" vertex="1" parent="1">
          <mxGeometry x="350" y="-1410" width="190" height="60" as="geometry" />
        </mxCell>
        <mxCell id="A9x5BEMEBD9m5PnlI2ai-59" style="edgeStyle=orthogonalEdgeStyle;rounded=0;orthogonalLoop=1;jettySize=auto;html=1;exitX=0.5;exitY=1;exitDx=0;exitDy=0;entryX=0.5;entryY=0;entryDx=0;entryDy=0;fontSize=15;" edge="1" parent="1" source="A9x5BEMEBD9m5PnlI2ai-33" target="A9x5BEMEBD9m5PnlI2ai-44">
          <mxGeometry relative="1" as="geometry">
            <Array as="points">
              <mxPoint x="225" y="-1200" />
              <mxPoint x="300" y="-1200" />
              <mxPoint x="300" y="-1090" />
              <mxPoint x="185" y="-1090" />
            </Array>
          </mxGeometry>
        </mxCell>
        <mxCell id="A9x5BEMEBD9m5PnlI2ai-60" style="edgeStyle=orthogonalEdgeStyle;rounded=0;orthogonalLoop=1;jettySize=auto;html=1;entryX=1;entryY=0.5;entryDx=0;entryDy=0;fontSize=15;" edge="1" parent="1" source="A9x5BEMEBD9m5PnlI2ai-33" target="A9x5BEMEBD9m5PnlI2ai-48">
          <mxGeometry relative="1" as="geometry">
            <Array as="points">
              <mxPoint x="225" y="-1200" />
              <mxPoint x="300" y="-1200" />
              <mxPoint x="300" y="-1015" />
            </Array>
          </mxGeometry>
        </mxCell>
        <mxCell id="A9x5BEMEBD9m5PnlI2ai-61" style="edgeStyle=orthogonalEdgeStyle;rounded=0;orthogonalLoop=1;jettySize=auto;html=1;fontSize=15;" edge="1" parent="1" source="A9x5BEMEBD9m5PnlI2ai-33" target="A9x5BEMEBD9m5PnlI2ai-50">
          <mxGeometry relative="1" as="geometry" />
        </mxCell>
        <mxCell id="A9x5BEMEBD9m5PnlI2ai-62" style="edgeStyle=orthogonalEdgeStyle;rounded=0;orthogonalLoop=1;jettySize=auto;html=1;entryX=0;entryY=0.5;entryDx=0;entryDy=0;fontSize=15;exitX=0.5;exitY=1;exitDx=0;exitDy=0;" edge="1" parent="1" source="A9x5BEMEBD9m5PnlI2ai-33" target="A9x5BEMEBD9m5PnlI2ai-49">
          <mxGeometry relative="1" as="geometry">
            <Array as="points">
              <mxPoint x="225" y="-1200" />
              <mxPoint x="300" y="-1200" />
              <mxPoint x="300" y="-1015" />
            </Array>
          </mxGeometry>
        </mxCell>
        <mxCell id="A9x5BEMEBD9m5PnlI2ai-63" style="edgeStyle=orthogonalEdgeStyle;rounded=0;orthogonalLoop=1;jettySize=auto;html=1;entryX=0;entryY=0.5;entryDx=0;entryDy=0;fontSize=15;" edge="1" parent="1" target="A9x5BEMEBD9m5PnlI2ai-16">
          <mxGeometry relative="1" as="geometry">
            <mxPoint x="225" y="-1340" as="sourcePoint" />
            <Array as="points">
              <mxPoint x="225" y="-1200" />
              <mxPoint x="420" y="-1200" />
              <mxPoint x="420" y="-1085" />
            </Array>
          </mxGeometry>
        </mxCell>
        <mxCell id="A9x5BEMEBD9m5PnlI2ai-33" value="loadAllTeaComponentsUseCase" style="ellipse;whiteSpace=wrap;html=1;fontSize=15;" vertex="1" parent="1">
          <mxGeometry x="110" y="-1420" width="230" height="80" as="geometry" />
        </mxCell>
        <mxCell id="A9x5BEMEBD9m5PnlI2ai-37" style="edgeStyle=orthogonalEdgeStyle;rounded=0;orthogonalLoop=1;jettySize=auto;html=1;entryX=0.5;entryY=0;entryDx=0;entryDy=0;fontSize=15;exitX=0.5;exitY=1;exitDx=0;exitDy=0;" edge="1" parent="1" source="A9x5BEMEBD9m5PnlI2ai-36" target="A9x5BEMEBD9m5PnlI2ai-32">
          <mxGeometry relative="1" as="geometry" />
        </mxCell>
        <mxCell id="A9x5BEMEBD9m5PnlI2ai-38" style="edgeStyle=orthogonalEdgeStyle;rounded=0;orthogonalLoop=1;jettySize=auto;html=1;fontSize=15;" edge="1" parent="1" source="A9x5BEMEBD9m5PnlI2ai-36" target="A9x5BEMEBD9m5PnlI2ai-33">
          <mxGeometry relative="1" as="geometry" />
        </mxCell>
        <mxCell id="A9x5BEMEBD9m5PnlI2ai-36" value="TeaRepositoryInterface" style="rounded=1;whiteSpace=wrap;html=1;fontSize=15;" vertex="1" parent="1">
          <mxGeometry x="220" y="-1590" width="220" height="60" as="geometry" />
        </mxCell>
        <mxCell id="A9x5BEMEBD9m5PnlI2ai-56" style="edgeStyle=orthogonalEdgeStyle;rounded=0;orthogonalLoop=1;jettySize=auto;html=1;entryX=0.5;entryY=1;entryDx=0;entryDy=0;fontSize=15;" edge="1" parent="1" source="A9x5BEMEBD9m5PnlI2ai-41" target="A9x5BEMEBD9m5PnlI2ai-48">
          <mxGeometry relative="1" as="geometry" />
        </mxCell>
        <mxCell id="A9x5BEMEBD9m5PnlI2ai-41" value="&lt;span style=&quot;font-size: 15px&quot;&gt;choseTeaMain&lt;br&gt;TasteFragment&lt;br&gt;&lt;/span&gt;" style="rounded=0;whiteSpace=wrap;html=1;fontSize=30;" vertex="1" parent="1">
          <mxGeometry x="220" y="-940" width="100" height="180" as="geometry" />
        </mxCell>
        <mxCell id="A9x5BEMEBD9m5PnlI2ai-52" style="edgeStyle=orthogonalEdgeStyle;rounded=0;orthogonalLoop=1;jettySize=auto;html=1;fontSize=15;" edge="1" parent="1" source="A9x5BEMEBD9m5PnlI2ai-42" target="A9x5BEMEBD9m5PnlI2ai-50">
          <mxGeometry relative="1" as="geometry">
            <Array as="points">
              <mxPoint x="390" y="-985" />
              <mxPoint x="320" y="-985" />
              <mxPoint x="320" y="-1045" />
            </Array>
          </mxGeometry>
        </mxCell>
        <mxCell id="A9x5BEMEBD9m5PnlI2ai-42" value="&lt;span style=&quot;font-size: 15px&quot;&gt;choseTea&lt;br&gt;SecondTaste&lt;br&gt;Fragment&lt;br&gt;&lt;/span&gt;" style="rounded=0;whiteSpace=wrap;html=1;fontSize=30;" vertex="1" parent="1">
          <mxGeometry x="340" y="-940" width="100" height="180" as="geometry" />
        </mxCell>
        <mxCell id="A9x5BEMEBD9m5PnlI2ai-51" style="edgeStyle=orthogonalEdgeStyle;rounded=0;orthogonalLoop=1;jettySize=auto;html=1;entryX=1;entryY=0.5;entryDx=0;entryDy=0;fontSize=15;" edge="1" parent="1" source="A9x5BEMEBD9m5PnlI2ai-43" target="A9x5BEMEBD9m5PnlI2ai-49">
          <mxGeometry relative="1" as="geometry" />
        </mxCell>
        <mxCell id="A9x5BEMEBD9m5PnlI2ai-43" value="&lt;span style=&quot;font-size: 15px&quot;&gt;choseTea&lt;br&gt;Decoration&lt;br&gt;Fragment&lt;br&gt;&lt;/span&gt;" style="rounded=0;whiteSpace=wrap;html=1;fontSize=30;" vertex="1" parent="1">
          <mxGeometry x="450" y="-940" width="100" height="180" as="geometry" />
        </mxCell>
        <mxCell id="A9x5BEMEBD9m5PnlI2ai-57" style="edgeStyle=orthogonalEdgeStyle;rounded=0;orthogonalLoop=1;jettySize=auto;html=1;entryX=0.5;entryY=0;entryDx=0;entryDy=0;fontSize=15;" edge="1" parent="1" source="A9x5BEMEBD9m5PnlI2ai-44" target="A9x5BEMEBD9m5PnlI2ai-7">
          <mxGeometry relative="1" as="geometry">
            <Array as="points">
              <mxPoint x="70" y="-1045" />
              <mxPoint x="70" y="-985" />
              <mxPoint x="150" y="-985" />
            </Array>
          </mxGeometry>
        </mxCell>
        <mxCell id="A9x5BEMEBD9m5PnlI2ai-44" value="choseTeaTypeViewModel" style="rounded=1;whiteSpace=wrap;html=1;fontSize=15;" vertex="1" parent="1">
          <mxGeometry x="95" y="-1060" width="180" height="30" as="geometry" />
        </mxCell>
        <mxCell id="A9x5BEMEBD9m5PnlI2ai-55" style="edgeStyle=orthogonalEdgeStyle;rounded=0;orthogonalLoop=1;jettySize=auto;html=1;fontSize=15;" edge="1" parent="1" source="A9x5BEMEBD9m5PnlI2ai-48" target="A9x5BEMEBD9m5PnlI2ai-41">
          <mxGeometry relative="1" as="geometry" />
        </mxCell>
        <mxCell id="A9x5BEMEBD9m5PnlI2ai-48" value="choseTeaMainTaste&lt;br&gt;ViewModel" style="rounded=1;whiteSpace=wrap;html=1;fontSize=15;" vertex="1" parent="1">
          <mxGeometry x="100" y="-1020" width="180" height="30" as="geometry" />
        </mxCell>
        <mxCell id="A9x5BEMEBD9m5PnlI2ai-53" value="" style="edgeStyle=orthogonalEdgeStyle;rounded=0;orthogonalLoop=1;jettySize=auto;html=1;fontSize=15;" edge="1" parent="1" source="A9x5BEMEBD9m5PnlI2ai-49" target="A9x5BEMEBD9m5PnlI2ai-43">
          <mxGeometry relative="1" as="geometry" />
        </mxCell>
        <mxCell id="A9x5BEMEBD9m5PnlI2ai-49" value="choseTeaDecorViewModel" style="rounded=1;whiteSpace=wrap;html=1;fontSize=15;" vertex="1" parent="1">
          <mxGeometry x="340" y="-1030" width="180" height="30" as="geometry" />
        </mxCell>
        <mxCell id="A9x5BEMEBD9m5PnlI2ai-54" style="edgeStyle=orthogonalEdgeStyle;rounded=0;orthogonalLoop=1;jettySize=auto;html=1;entryX=0.5;entryY=0;entryDx=0;entryDy=0;fontSize=15;" edge="1" parent="1" source="A9x5BEMEBD9m5PnlI2ai-50" target="A9x5BEMEBD9m5PnlI2ai-42">
          <mxGeometry relative="1" as="geometry">
            <Array as="points">
              <mxPoint x="320" y="-1045" />
              <mxPoint x="320" y="-985" />
              <mxPoint x="390" y="-985" />
            </Array>
          </mxGeometry>
        </mxCell>
        <mxCell id="A9x5BEMEBD9m5PnlI2ai-50" value="choseTeaSecond&lt;br&gt;TasteViewModel" style="rounded=1;whiteSpace=wrap;html=1;fontSize=15;" vertex="1" parent="1">
          <mxGeometry x="330" y="-1060" width="180" height="30" as="geometry" />
        </mxCell>
        <mxCell id="A9x5BEMEBD9m5PnlI2ai-66" value="TeaModel" style="rounded=1;whiteSpace=wrap;html=1;fontSize=15;" vertex="1" parent="1">
          <mxGeometry x="480" y="-1630" width="120" height="60" as="geometry" />
        </mxCell>
        <mxCell id="A9x5BEMEBD9m5PnlI2ai-68" value="TeaComponent&lt;br&gt;Model" style="rounded=1;whiteSpace=wrap;html=1;fontSize=15;" vertex="1" parent="1">
          <mxGeometry x="480" y="-1560" width="120" height="60" as="geometry" />
        </mxCell>
        <mxCell id="A9x5BEMEBD9m5PnlI2ai-69" value="add new tea module" style="text;html=1;strokeColor=none;fillColor=none;align=center;verticalAlign=middle;whiteSpace=wrap;rounded=0;dashed=1;fontSize=40;" vertex="1" parent="1">
          <mxGeometry x="90" y="-2280" width="580" height="70" as="geometry" />
        </mxCell>
        <mxCell id="A9x5BEMEBD9m5PnlI2ai-72" value="In all tea tab Module" style="text;html=1;strokeColor=none;fillColor=none;align=center;verticalAlign=middle;whiteSpace=wrap;rounded=0;dashed=1;fontSize=40;" vertex="1" parent="1">
          <mxGeometry x="100" y="-2000" width="580" height="70" as="geometry" />
        </mxCell>
      </root>
    </mxGraphModel>
  </diagram>
</mxfile>
